<mxfile host="app.diagrams.net" modified="2021-06-19T11:55:17.651Z" agent="5.0 (Macintosh; Intel Mac OS X 10_15_7) AppleWebKit/537.36 (KHTML, like Gecko) Chrome/91.0.4472.106 Safari/537.36" etag="IkfZWVtv8lQPviuZ0zYb" version="14.8.0" type="github">
  <diagram id="m0sx_WKs45kIJurnn5ab" name="Page-1">
    <mxGraphModel dx="1426" dy="803" grid="1" gridSize="10" guides="1" tooltips="1" connect="1" arrows="1" fold="1" page="1" pageScale="1" pageWidth="827" pageHeight="1169" math="0" shadow="0">
      <root>
        <mxCell id="0" />
        <mxCell id="1" parent="0" />
        <mxCell id="_PQOmt5-3wVJooAnEo2a-3" style="edgeStyle=orthogonalEdgeStyle;rounded=0;orthogonalLoop=1;jettySize=auto;html=1;exitX=1;exitY=0.5;exitDx=0;exitDy=0;" edge="1" parent="1" source="_PQOmt5-3wVJooAnEo2a-1" target="_PQOmt5-3wVJooAnEo2a-2">
          <mxGeometry relative="1" as="geometry" />
        </mxCell>
        <mxCell id="_PQOmt5-3wVJooAnEo2a-1" value="客户需求" style="rounded=0;whiteSpace=wrap;html=1;" vertex="1" parent="1">
          <mxGeometry x="20" y="260" width="120" height="60" as="geometry" />
        </mxCell>
        <mxCell id="_PQOmt5-3wVJooAnEo2a-2" value="筛选判断" style="rounded=0;whiteSpace=wrap;html=1;" vertex="1" parent="1">
          <mxGeometry x="250" y="260" width="120" height="60" as="geometry" />
        </mxCell>
      </root>
    </mxGraphModel>
  </diagram>
</mxfile>
